<svg xmlns="http://www.w3.org/2000/svg" viewBox="0 0 130.09 179.66"><defs><style>.cls-1{fill:#fff;}.cls-2{fill:#ffb420;}.cls-3,.cls-6{fill:#ffc47b;}.cls-3{opacity:0.75;}.cls-4{fill:#cc0a00;}.cls-5{fill:#240b00;}.cls-7{fill:#ef0000;}</style></defs><g id="Layer_2" data-name="Layer 2"><g id="Layer_1-2" data-name="Layer 1"><path class="cls-1" d="M80.54,120.47V114a33.79,33.79,0,0,1-31,0v6.51c.47,1.89,3.65,12.74,15.49,12.74S80.09,122.36,80.54,120.47Z"/><path class="cls-2" d="M92.93,54.57,73.67,44.94a12.78,12.78,0,0,1-2.23,4.35L92.93,60Z"/><path class="cls-3" d="M99.12,68.72V83.64c0,.86-.06,1.71-.13,2.56a9.23,9.23,0,0,0,.13-17.48Z"/><path class="cls-2" d="M94.26,127.37l-8.57-2.68c-1.78,4.69-5.65,10.44-12.39,13.15A20.68,20.68,0,0,1,76.85,146c9.2-4.4,14.76-13.27,17.41-18.65Z"/><path class="cls-4" d="M68.15,40.27c0,3.42-1.39,6.19-3.1,6.19S62,43.69,62,40.27s1.39-6.2,3.1-6.2,3.1,2.77,3.1,6.2Z"/><path class="cls-5" d="M86.73,109.9v8.63l18.73,5.85a21.69,21.69,0,0,1,3.47-9.94,15.26,15.26,0,0,0,2.58-8.51V104.7a15.29,15.29,0,0,0-2.58-8.51,21.71,21.71,0,0,1-3-7,15.35,15.35,0,0,1-8.1,3.52A34.19,34.19,0,0,1,86.73,109.9Z"/><path class="cls-2" d="M44.4,124.69l-8.56,2.68c2.67,5.38,8.24,14.25,17.41,18.65a20.53,20.53,0,0,1,3.54-8.18c-6.74-2.71-10.61-8.46-12.39-13.15Z"/><path class="cls-2" d="M29.85,129.24l-8.38,2.62c5,8.69,15.55,22.92,32.28,27.62a27,27,0,0,1-1.06-7c-12.73-5-19.81-16.81-22.84-23.26Z"/><path class="cls-2" d="M37.17,54.57V60L58.65,49.29a12.77,12.77,0,0,1-2.22-4.35Z"/><path class="cls-6" d="M92.93,67V83.63a27.88,27.88,0,0,1-55.76,0V67L65.05,53Z"/><path class="cls-2" d="M108.62,131.86l-8.37-2.62c-3,6.45-10.12,18.23-22.84,23.26a26.93,26.93,0,0,1-1.06,7c16.73-4.7,27.25-18.92,32.27-27.62Z"/><path class="cls-5" d="M24.63,124.38l18.74-5.85V109.9A34.14,34.14,0,0,1,32.25,92.74a15.19,15.19,0,0,1-8.11-3.52,21.19,21.19,0,0,1-3,7,15.37,15.37,0,0,0-2.57,8.52v1.22a15.33,15.33,0,0,0,2.57,8.51,21.46,21.46,0,0,1,3.47,9.94Z"/><path class="cls-6" d="M15.42,133.75l-4.55,1.42A15.42,15.42,0,0,0,0,150v29.71H15.5a106.65,106.65,0,0,1,3.18-25.53l6,1.5a100.8,100.8,0,0,0-3,24H54.47A7.48,7.48,0,0,0,62,172.18v-2.4a11.08,11.08,0,0,1-4.39-3.13C34.63,163.06,21.1,144,15.42,133.75Z"/><path class="cls-6" d="M119.23,135.17l-4.56-1.42C109,144,95.46,163.06,72.54,166.65a11.18,11.18,0,0,1-4.4,3.13v2.4a7.49,7.49,0,0,0,7.48,7.48H108.4a100.8,100.8,0,0,0-3-24l6-1.5a106.65,106.65,0,0,1,3.18,25.53h15.5V150a15.41,15.41,0,0,0-10.86-14.78Z"/><path class="cls-2" d="M99.12,50.74V62.26a15.41,15.41,0,0,1,6.2,2.87V62a40.27,40.27,0,0,0-19-34.16A41.34,41.34,0,0,1,92.85,47.6Z"/><path class="cls-7" d="M71.24,151.78c0,6.84-2.77,12.39-6.19,12.39s-6.2-5.55-6.2-12.39,2.78-12.39,6.2-12.39,6.19,5.54,6.19,12.39Z"/><path class="cls-3" d="M31.11,86.2C31,85.35,31,84.5,31,83.63V68.72a9.23,9.23,0,0,0,.13,17.48Z"/><path class="cls-2" d="M31,50.74l6.28-3.14a41.3,41.3,0,0,1,6.57-19.8A40.22,40.22,0,0,0,24.78,62v3.18A15.22,15.22,0,0,1,31,62.27Z"/><path class="cls-2" d="M65.05,0a9.3,9.3,0,0,0-8.73,6.2H73.77A9.28,9.28,0,0,0,65.05,0Z"/><path class="cls-2" d="M68.15,21.84v6.78c3.18,1.46,5.51,5.09,6,9.66l12.07,6C84.5,34,78,26.35,74.39,22.82a41.39,41.39,0,0,0-6.24-1Z"/><path class="cls-2" d="M80.54,18.2V12.39h-31V18.2a45.62,45.62,0,0,1,31,0Z"/><path class="cls-2" d="M62,28.61V21.84a39,39,0,0,0-6.24,1C52.12,26.36,45.59,34,43.82,44.32l12.08-6c.54-4.57,2.87-8.2,6.05-9.67Z"/></g></g></svg>