<svg xmlns="http://www.w3.org/2000/svg" viewBox="0 0 464.84 309"><defs><style>.cls-1,.cls-8{fill:#ffb420;}.cls-2{fill:#ca8700;}.cls-3,.cls-5,.cls-7{fill:#ffc47b;}.cls-4{fill:#ef0000;}.cls-5{opacity:0.5;}.cls-6{fill:#260e00;}.cls-7{opacity:0.75;}.cls-8{opacity:0.71;}.cls-9{fill:#ff893a;}.cls-10{fill:#fbb03b;}</style></defs><g id="Layer_2" data-name="Layer 2"><g id="Layer_1-2" data-name="Layer 1"><path class="cls-1" d="M229.35,180.11v5.39l-.28-.19a19.51,19.51,0,0,0-24.27,2.09v-7.29Z"/><path class="cls-2" d="M258.2,258.54a36.83,36.83,0,0,1-14.33,11.31,16.17,16.17,0,0,0-2.69-5.32A26.43,26.43,0,0,0,252,257.17Z"/><path class="cls-2" d="M223.65,264.53a16.36,16.36,0,0,0-2.69,5.32,37,37,0,0,1-14.33-11.31l6.17-1.37A26.6,26.6,0,0,0,223.65,264.53Z"/><path class="cls-3" d="M260,201.59v15.34a27.62,27.62,0,0,1-55.24,0V201.59a13.42,13.42,0,0,1,20.86-11.17l3.69,2.46v2.57h6.14v-2.57l3.68-2.46A13.42,13.42,0,0,1,260,201.59Z"/><ellipse class="cls-4" cx="232.42" cy="275.24" rx="6.14" ry="9.21"/><path class="cls-5" d="M247.76,247v5.77a20,20,0,0,1-30.69,0V247a33.43,33.43,0,0,0,30.69,0Z"/><path class="cls-6" d="M278.13,251.26a17.78,17.78,0,0,0-.69,5.27L253.9,251.3V243A33.72,33.72,0,0,0,266,219.61a12.4,12.4,0,0,0,1.57-.49,14.84,14.84,0,0,0,3.55,5.24c1,1,2.16,2.33,2.29,3.07s-.58,2.37-1.14,3.67a20.42,20.42,0,0,0-1.51,4.36,7.65,7.65,0,0,0,.07,3.33c.7,2.74,3,4.48,5,6,1.13.86,2.53,1.94,2.78,2.64S278.47,249.88,278.13,251.26Z"/><path class="cls-1" d="M260,180.11v7.29a19.51,19.51,0,0,0-24.27-2.09l-.28.19v-5.39Z"/><path class="cls-2" d="M210.94,271.2V309H200a18.14,18.14,0,0,1-4.36-10.11c0-.55-.07-1.09-.07-1.64v-.32a17.78,17.78,0,0,1,3-9.92,18.74,18.74,0,0,0,3.13-10.35V269.1h-6.14v7.56a12.33,12.33,0,0,1-2.1,6.95,23.89,23.89,0,0,0-2.8,5.83,76.81,76.81,0,0,1-23-15.78l-5.29-5.29,9-2L200.1,260A45.09,45.09,0,0,0,210.94,271.2Z"/><path class="cls-6" d="M210.93,243v8.35l-23.53,5.23a18.18,18.18,0,0,0-.69-5.28c-.34-1.37-.76-3.09-.51-3.79s1.65-1.79,2.78-2.65c2-1.54,4.28-3.29,5-6s-.43-5.37-1.44-7.69c-.56-1.3-1.27-2.92-1.14-3.67s1.32-2,2.29-3.07a14.84,14.84,0,0,0,3.55-5.24,13.47,13.47,0,0,0,1.56.49A33.74,33.74,0,0,0,210.93,243Z"/><path class="cls-7" d="M269.25,207.72a6.35,6.35,0,0,1-3.07,5.29V202.44A6.12,6.12,0,0,1,269.25,207.72Z"/><path class="cls-8" d="M198.66,180.1v15.78a12.58,12.58,0,0,0-3.07,1.27V180.1Z"/><path class="cls-7" d="M198.66,202.44V213a6.15,6.15,0,0,1-2.83-3.67,6.68,6.68,0,0,1-.24-1.61A6.12,6.12,0,0,1,198.66,202.44Z"/><path class="cls-2" d="M302.46,268.37l-5.29,5.29a76.81,76.81,0,0,1-23,15.78,24.13,24.13,0,0,0-2.8-5.84,12.61,12.61,0,0,1-2.11-6.94V269.1h-6.13v7.56a18.52,18.52,0,0,0,1,5.93,18.29,18.29,0,0,0,2.16,4.42,17.87,17.87,0,0,1,3,9.92v.32a15.73,15.73,0,0,1-.1,1.82,18,18,0,0,1-4.32,9.93H253.9V271.2A45.28,45.28,0,0,0,264.74,260l29.18,6.48Z"/><path class="cls-3" d="M290.73,287.08V309H272.28a24.23,24.23,0,0,0,3.1-11.75v-.43c0-.37-.06-.74-.09-1.11A83,83,0,0,0,290.73,287.08Z"/><path class="cls-2" d="M244.62,276.15a16.78,16.78,0,0,1-4.78,11.28,10.32,10.32,0,0,1-14.88,0,16.78,16.78,0,0,1-4.74-11.24c-1.09-.4-2.15-.82-3.15-1.3V309h30.69V274.86C246.76,275.33,245.71,275.75,244.62,276.15Zm-15.27,20.57h6.14v6.14h-6.14Z"/><path class="cls-3" d="M192.56,309H174.11V287.09a83.76,83.76,0,0,0,15.43,8.63c0,.29-.06.59-.08.88,0,.11,0,.22,0,.33v.32A24.13,24.13,0,0,0,192.56,309Z"/><path class="cls-8" d="M269.25,180.1v17.05a12.74,12.74,0,0,0-3.07-1.27V180.1Z"/><rect class="cls-1" x="217.07" y="149.42" width="30.69" height="6.13"/><path class="cls-1" d="M220.15,167.83a12.15,12.15,0,0,0,1.7,6.14H202.92L207,161.69h14.84A12.19,12.19,0,0,0,220.15,167.83Z"/><path class="cls-9" d="M229.35,162.55v10.56a6.08,6.08,0,0,1,0-10.56Z"/><path class="cls-9" d="M238.56,167.83a6.12,6.12,0,0,1-3.07,5.28V162.55A6.12,6.12,0,0,1,238.56,167.83Z"/><path class="cls-1" d="M243,174a11.88,11.88,0,0,0,0-12.28h14.85L261.92,174Z"/><rect class="cls-8" x="229.35" y="131" width="6.14" height="12.28"/><path class="cls-8" d="M223.21,135.7v7.58h-6.14a6.14,6.14,0,0,0-6.13,6.13v6.14H207a6.13,6.13,0,0,0-5.82,4.2L196.45,174h-.86a36.54,36.54,0,0,1,1-8.42l-6-1.94,1.89-5.84,6,1.94a37.45,37.45,0,0,1,2.47-4.8l-5.11-3.72,3.61-5,5.13,3.72a36.16,36.16,0,0,1,3.82-3.81L204.68,141l5-3.61,3.73,5.13a36.16,36.16,0,0,1,4.8-2.46l-2-6,5.84-1.89Z"/><path class="cls-8" d="M268.25,165.55a37.1,37.1,0,0,1,1,8.42h-.86l-4.74-14.22a6.14,6.14,0,0,0-5.82-4.2H253.9v-6.13a6.14,6.14,0,0,0-6.14-6.14h-6.13V135.7l1.15-3.54,5.83,1.89-2,6a36.16,36.16,0,0,1,4.8,2.46l3.73-5.13,5,3.61-3.72,5.13a38.16,38.16,0,0,1,3.82,3.81l5.12-3.72,3.61,5-5.11,3.71a35.18,35.18,0,0,1,2.47,4.81l6-1.95,1.9,5.84Z"/><path class="cls-10" d="M206.36,54.85h52.12c4.37,0,6.16-3.1,4-6.87l-26-45.14c-2.19-3.79-5.75-3.79-7.94,0L202.4,48c-2.19,3.78-.42,6.87,4,6.87Z"/><path class="cls-10" d="M121.06,91.67,166.2,65.61c3.78-2.18,3.78-5.76,0-7.93L121.06,31.61c-3.78-2.18-6.88-.39-6.88,4V87.71c0,4.36,3.1,6.15,6.88,4Z"/><path class="cls-10" d="M57.67,166.21c2.19,3.78,5.76,3.78,7.94,0l26.06-45.15c2.18-3.78.4-6.87-4-6.87H35.59c-4.37,0-6.15,3.09-4,6.87Z"/><path class="cls-10" d="M54.85,258.48V206.36c0-4.37-3.1-6.15-6.87-4L2.84,228.45c-3.79,2.19-3.79,5.75,0,7.93L48,262.45c3.77,2.18,6.87.4,6.87-4Z"/><path class="cls-10" d="M462,228.46,416.85,202.4c-3.78-2.19-6.87-.4-6.87,4v52.13c0,4.36,3.09,6.15,6.87,4L462,236.4c3.78-2.19,3.78-5.75,0-7.94Z"/><path class="cls-10" d="M399.23,166.21c2.18,3.79,5.75,3.79,7.94,0l26.05-45.14c2.2-3.78.4-6.87-4-6.87H377.13c-4.36,0-6.15,3.09-4,6.87Z"/><path class="cls-10" d="M298.63,65.61l45.14,26.06c3.79,2.18,6.88.39,6.88-4V35.58c0-4.36-3.09-6.15-6.88-4L298.63,57.67c-3.78,2.19-3.78,5.76,0,7.94Z"/></g></g></svg>